<svg width="20" height="20" viewBox="0 0 20 20" fill="none" xmlns="http://www.w3.org/2000/svg">
<path d="M9.99996 19.1667C5.36913 18.1375 1.66663 13.7683 1.66663 9.16668V4.16668L9.99996 0.833344L18.3333 4.16668V9.16668C18.3333 13.77 14.6308 18.1375 9.99996 19.1667ZM3.33329 5.00001V9.16668C3.38091 11.0935 4.05859 12.9515 5.26261 14.4566C6.46662 15.9616 8.13063 17.0306 9.99996 17.5C11.8693 17.0306 13.5333 15.9616 14.7373 14.4566C15.9413 12.9515 16.619 11.0935 16.6666 9.16668V5.00001L9.99996 2.50001L3.33329 5.00001Z" fill="white"/>
<path d="M9.99996 9.16667C11.1506 9.16667 12.0833 8.23393 12.0833 7.08333C12.0833 5.93274 11.1506 5 9.99996 5C8.84937 5 7.91663 5.93274 7.91663 7.08333C7.91663 8.23393 8.84937 9.16667 9.99996 9.16667Z" fill="white"/>
<path d="M5.83337 12.5C6.24411 13.2485 6.84637 13.8744 7.57849 14.3137C8.31061 14.753 9.14631 14.9898 10 15C10.8538 14.9898 11.6895 14.753 12.4216 14.3137C13.1537 13.8744 13.756 13.2485 14.1667 12.5C14.1459 10.92 11.3817 10 10 10C8.61087 10 5.85421 10.92 5.83337 12.5Z" fill="white"/>
</svg>
