<svg width="15" height="16" viewBox="0 0 15 16" fill="none" xmlns="http://www.w3.org/2000/svg">
<path d="M0 12.75H6.25V14H0V12.75ZM0 9H6.25V10.25H0V9ZM13.75 6.5H1.25C0.918479 6.5 0.600537 6.3683 0.366116 6.13388C0.131696 5.89946 0 5.58152 0 5.25V1.5C0 1.16848 0.131696 0.850537 0.366116 0.616116C0.600537 0.381696 0.918479 0.25 1.25 0.25H13.75C14.0815 0.25 14.3995 0.381696 14.6339 0.616116C14.8683 0.850537 15 1.16848 15 1.5V5.25C15 5.58152 14.8683 5.89946 14.6339 6.13388C14.3995 6.3683 14.0815 6.5 13.75 6.5ZM1.25 1.5V5.25H13.75V1.5H1.25ZM13.75 15.25H10C9.66848 15.25 9.35054 15.1183 9.11612 14.8839C8.8817 14.6495 8.75 14.3315 8.75 14V10.25C8.75 9.91848 8.8817 9.60054 9.11612 9.36612C9.35054 9.1317 9.66848 9 10 9H13.75C14.0815 9 14.3995 9.1317 14.6339 9.36612C14.8683 9.60054 15 9.91848 15 10.25V14C15 14.3315 14.8683 14.6495 14.6339 14.8839C14.3995 15.1183 14.0815 15.25 13.75 15.25ZM10 10.25V14H13.75V10.25H10Z" fill="white"/>
</svg>
