<svg width="16" height="16" viewBox="0 0 16 16" fill="none" xmlns="http://www.w3.org/2000/svg">
<path d="M14.0898 1.16524C13.5026 0.58033 12.7076 0.251923 11.8788 0.251923C11.05 0.251923 10.255 0.58033 9.66782 1.16524L7.79277 3.04028C7.70265 3.13218 7.64269 3.24937 7.62089 3.37623C6.93338 7.38414 0.316024 14.0562 0.191021 14.1812H0.183208C0.0658413 14.2997 0 14.4597 0 14.6265C0 14.7933 0.0658413 14.9533 0.183208 15.0718C0.302673 15.1873 0.462351 15.2519 0.628531 15.2519C0.794712 15.2519 0.95439 15.1873 1.07386 15.0718C1.13636 15.0015 7.85527 8.32167 11.8788 7.63415C12.0057 7.61235 12.1229 7.55239 12.2148 7.46227L14.0898 5.58722C14.6747 5.00004 15.0031 4.20502 15.0031 3.37623C15.0031 2.54744 14.6747 1.75242 14.0898 1.16524ZM12.3241 3.82155L11.0741 5.07158C10.9546 5.1871 10.795 5.25167 10.6288 5.25167C10.4626 5.25167 10.3029 5.1871 10.1835 5.07158C10.0661 4.95309 10.0002 4.79305 10.0002 4.62626C10.0002 4.45948 10.0661 4.29944 10.1835 4.18094L11.4335 2.93091C11.5549 2.83124 11.7091 2.78031 11.866 2.78801C12.0229 2.79572 12.1714 2.86152 12.2824 2.9726C12.3935 3.08369 12.4593 3.23212 12.467 3.38904C12.4747 3.54595 12.4238 3.70012 12.3241 3.82155Z" fill="white"/>
</svg>
