<svg width="13" height="13" viewBox="0 0 13 13" fill="none" xmlns="http://www.w3.org/2000/svg">
<path d="M11.79 2.66H9.87V1.46C9.87 0.9305 9.4395 0.5 8.91 0.5H4.11C3.5805 0.5 3.15 0.9305 3.15 1.46V2.66H1.23C0.9645 2.66 0.75 2.8745 0.75 3.14V3.62C0.75 3.686 0.804 3.74 0.87 3.74H1.776L2.1465 11.585C2.1705 12.0965 2.5935 12.5 3.105 12.5H9.915C10.428 12.5 10.8495 12.098 10.8735 11.585L11.244 3.74H12.15C12.216 3.74 12.27 3.686 12.27 3.62V3.14C12.27 2.8745 12.0555 2.66 11.79 2.66ZM8.79 2.66H4.23V1.58H8.79V2.66Z" fill="#CC0000"/>
</svg>
