<svg width="12" height="13" viewBox="0 0 12 13" fill="none" xmlns="http://www.w3.org/2000/svg">
<path d="M11.52 11.36H0.48C0.2145 11.36 0 11.5745 0 11.84V12.38C0 12.446 0.054 12.5 0.12 12.5H11.88C11.946 12.5 12 12.446 12 12.38V11.84C12 11.5745 11.7855 11.36 11.52 11.36ZM2.1855 10.1C2.2155 10.1 2.2455 10.097 2.2755 10.0925L4.7985 9.65C4.8285 9.644 4.857 9.6305 4.878 9.608L11.2365 3.2495C11.2504 3.23562 11.2614 3.21914 11.269 3.20099C11.2765 3.18285 11.2804 3.1634 11.2804 3.14375C11.2804 3.1241 11.2765 3.10465 11.269 3.08651C11.2614 3.06836 11.2504 3.05188 11.2365 3.038L8.7435 0.5435C8.715 0.515 8.6775 0.5 8.637 0.5C8.5965 0.5 8.559 0.515 8.5305 0.5435L2.172 6.902C2.1495 6.9245 2.136 6.9515 2.13 6.9815L1.6875 9.5045C1.67291 9.58486 1.67812 9.66756 1.70269 9.74545C1.72726 9.82333 1.77044 9.89406 1.8285 9.9515C1.9275 10.0475 2.052 10.1 2.1855 10.1Z" fill="#E28F1D"/>
</svg>
