<svg width="15" height="16" viewBox="0 0 15 16" fill="none" xmlns="http://www.w3.org/2000/svg">
<path d="M15 13.6865V7.81701C15 7.40866 14.9167 7.00459 14.7551 6.62957C14.5935 6.25454 14.3571 5.91645 14.0602 5.63601L8.5305 0.410014C8.252 0.146709 7.88327 0 7.5 0C7.11673 0 6.748 0.146709 6.4695 0.410014L0.93975 5.63601C0.642918 5.91645 0.406464 6.25454 0.244873 6.62957C0.0832825 7.00459 -4.3393e-05 7.40866 1.69526e-08 7.81701V13.6865C1.69526e-08 14.0843 0.158035 14.4659 0.43934 14.7472C0.720644 15.0285 1.10218 15.1865 1.5 15.1865H13.5C13.8978 15.1865 14.2794 15.0285 14.5607 14.7472C14.842 14.4659 15 14.0843 15 13.6865Z" fill="white"/>
</svg>
