<svg width="18" height="16" viewBox="0 0 18 16" fill="none" xmlns="http://www.w3.org/2000/svg">
<path d="M16.7647 0.333328H0.882353C0.648338 0.333328 0.423908 0.42629 0.258435 0.591764C0.0929619 0.757237 0 0.981667 0 1.21568V13.5686C0 14.0367 0.185924 14.4855 0.51687 14.8165C0.847817 15.1474 1.29668 15.3333 1.76471 15.3333H15.8824C16.3504 15.3333 16.7992 15.1474 17.1302 14.8165C17.4611 14.4855 17.6471 14.0367 17.6471 13.5686V1.21568C17.6471 0.981667 17.5541 0.757237 17.3886 0.591764C17.2232 0.42629 16.9987 0.333328 16.7647 0.333328ZM8.82353 8.27451C5.90382 8.27451 3.52941 5.90009 3.52941 2.98039H5.29412C5.29412 4.92686 6.87706 6.5098 8.82353 6.5098C10.77 6.5098 12.3529 4.92686 12.3529 2.98039H14.1176C14.1176 5.90009 11.7432 8.27451 8.82353 8.27451Z" fill="white"/>
</svg>
