<svg width="16" height="17" viewBox="0 0 16 17" fill="none" xmlns="http://www.w3.org/2000/svg">
<path d="M7.10988 0.95906C7.33592 0.833528 7.59022 0.767654 7.84879 0.767654C8.10735 0.767654 8.36165 0.833528 8.58769 0.95906L14.3064 4.13537C14.425 4.20131 14.5238 4.29773 14.5925 4.41467C14.6613 4.53161 14.6976 4.66481 14.6976 4.80047V11.0671C14.6975 11.3385 14.6249 11.605 14.4872 11.8388C14.3495 12.0727 14.1518 12.2655 13.9145 12.3973L8.58769 15.3575C8.36165 15.483 8.10735 15.5489 7.84879 15.5489C7.59022 15.5489 7.33592 15.483 7.10988 15.3575L1.78304 12.3973C1.54589 12.2656 1.34825 12.0729 1.21057 11.8392C1.0729 11.6054 1.0002 11.3391 1 11.0679V4.80047C0.999994 4.66481 1.03625 4.53161 1.10503 4.41467C1.1738 4.29773 1.27258 4.20131 1.39114 4.13537L7.11064 0.95906H7.10988Z" stroke="white" stroke-linecap="round" stroke-linejoin="round"/>
<path d="M1 4.35301L7.84879 8.15789M7.84879 8.15789L14.6976 4.35301M7.84879 8.15789V15.7677" stroke="white" stroke-linejoin="round"/>
</svg>
