<svg width="12" height="16" viewBox="0 0 12 16" fill="none" xmlns="http://www.w3.org/2000/svg">
<path d="M5.89286 0.125C4.33055 0.126843 2.83275 0.748288 1.72802 1.85301C0.623294 2.95774 0.00184938 4.45554 6.2694e-06 6.01786C-0.00186492 7.29458 0.415174 8.53667 1.18715 9.55357C1.18715 9.55357 1.34786 9.76518 1.37411 9.79571L5.89286 15.125L10.4138 9.79304C10.4373 9.76464 10.5986 9.55357 10.5986 9.55357L10.5991 9.55196C11.3707 8.53551 11.7876 7.294 11.7857 6.01786C11.7839 4.45554 11.1624 2.95774 10.0577 1.85301C8.95298 0.748288 7.45518 0.126843 5.89286 0.125ZM5.89286 8.16071C5.46905 8.16071 5.05475 8.03504 4.70236 7.79958C4.34996 7.56412 4.07531 7.22945 3.91312 6.83789C3.75093 6.44634 3.7085 6.01548 3.79118 5.59981C3.87386 5.18413 4.07795 4.80231 4.37763 4.50263C4.67732 4.20294 5.05914 3.99886 5.47481 3.91617C5.89049 3.83349 6.32134 3.87593 6.7129 4.03812C7.10445 4.2003 7.43912 4.47496 7.67458 4.82735C7.91004 5.17974 8.03572 5.59404 8.03572 6.01786C8.03501 6.58596 7.80902 7.13059 7.40731 7.5323C7.0056 7.93401 6.46097 8.16001 5.89286 8.16071Z" fill="white"/>
</svg>
