<svg width="20" height="15" viewBox="0 0 20 15" fill="none" xmlns="http://www.w3.org/2000/svg">
<path d="M0 12.5V2.5C0 1.83696 0.263392 1.20107 0.732233 0.732233C1.20107 0.263392 1.83696 0 2.5 0H17.5C18.163 0 18.7989 0.263392 19.2678 0.732233C19.7366 1.20107 20 1.83696 20 2.5V12.5C20 13.163 19.7366 13.7989 19.2678 14.2678C18.7989 14.7366 18.163 15 17.5 15H2.5C1.83696 15 1.20107 14.7366 0.732233 14.2678C0.263392 13.7989 0 13.163 0 12.5ZM8.4875 3.86625C8.39404 3.79971 8.28408 3.76018 8.16965 3.75198C8.05522 3.74379 7.94074 3.76724 7.83876 3.81978C7.73678 3.87233 7.65122 3.95192 7.59147 4.04986C7.53171 4.14779 7.50007 4.26028 7.5 4.375V10.625C7.50007 10.7397 7.53171 10.8522 7.59147 10.9501C7.65122 11.0481 7.73678 11.1277 7.83876 11.1802C7.94074 11.2328 8.05522 11.2562 8.16965 11.248C8.28408 11.2398 8.39404 11.2003 8.4875 11.1337L12.8625 8.00875C12.9435 7.95093 13.0096 7.87461 13.0551 7.78612C13.1007 7.69762 13.1245 7.59953 13.1245 7.5C13.1245 7.40047 13.1007 7.30237 13.0551 7.21388C13.0096 7.12539 12.9435 7.04906 12.8625 6.99125L8.4875 3.86625Z" fill="white"/>
</svg>
