<svg width="14" height="11" viewBox="0 0 14 11" fill="none" xmlns="http://www.w3.org/2000/svg">
<path d="M9.1875 5.5C9.1875 6.08016 8.95703 6.63656 8.5468 7.0468C8.13656 7.45703 7.58016 7.6875 7 7.6875C6.41984 7.6875 5.86344 7.45703 5.4532 7.0468C5.04297 6.63656 4.8125 6.08016 4.8125 5.5C4.8125 4.91984 5.04297 4.36344 5.4532 3.9532C5.86344 3.54297 6.41984 3.3125 7 3.3125C7.58016 3.3125 8.13656 3.54297 8.5468 3.9532C8.95703 4.36344 9.1875 4.91984 9.1875 5.5Z" fill="#E28F1D"/>
<path d="M0 5.5C0 5.5 2.625 0.6875 7 0.6875C11.375 0.6875 14 5.5 14 5.5C14 5.5 11.375 10.3125 7 10.3125C2.625 10.3125 0 5.5 0 5.5ZM7 8.5625C7.81223 8.5625 8.59118 8.23984 9.16551 7.66551C9.73984 7.09118 10.0625 6.31223 10.0625 5.5C10.0625 4.68777 9.73984 3.90882 9.16551 3.33449C8.59118 2.76016 7.81223 2.4375 7 2.4375C6.18777 2.4375 5.40882 2.76016 4.83449 3.33449C4.26016 3.90882 3.9375 4.68777 3.9375 5.5C3.9375 6.31223 4.26016 7.09118 4.83449 7.66551C5.40882 8.23984 6.18777 8.5625 7 8.5625Z" fill="#E28F1D"/>
</svg>
