<svg width="15" height="15" viewBox="0 0 15 15" fill="none" xmlns="http://www.w3.org/2000/svg">
<path d="M7.5 0C3.35826 0 0 3.35826 0 7.5C0 11.6417 3.35826 15 7.5 15C11.6417 15 15 11.6417 15 7.5C15 3.35826 11.6417 0 7.5 0ZM10.7143 7.90179C10.7143 7.97545 10.654 8.03571 10.5804 8.03571H8.03571V10.5804C8.03571 10.654 7.97545 10.7143 7.90179 10.7143H7.09821C7.02455 10.7143 6.96429 10.654 6.96429 10.5804V8.03571H4.41964C4.34598 8.03571 4.28571 7.97545 4.28571 7.90179V7.09821C4.28571 7.02455 4.34598 6.96429 4.41964 6.96429H6.96429V4.41964C6.96429 4.34598 7.02455 4.28571 7.09821 4.28571H7.90179C7.97545 4.28571 8.03571 4.34598 8.03571 4.41964V6.96429H10.5804C10.654 6.96429 10.7143 7.02455 10.7143 7.09821V7.90179Z" fill="#232323"/>
</svg>
