<svg width="14" height="15" viewBox="0 0 14 15" fill="none" xmlns="http://www.w3.org/2000/svg">
<path d="M3.75 9C3.5375 9 3.35925 8.928 3.21525 8.784C3.07175 8.6405 3 8.4625 3 8.25C3 8.0375 3.07175 7.85925 3.21525 7.71525C3.35925 7.57175 3.5375 7.5 3.75 7.5C3.9625 7.5 4.14075 7.57175 4.28475 7.71525C4.42825 7.85925 4.5 8.0375 4.5 8.25C4.5 8.4625 4.42825 8.6405 4.28475 8.784C4.14075 8.928 3.9625 9 3.75 9ZM6.75 9C6.5375 9 6.3595 8.928 6.216 8.784C6.072 8.6405 6 8.4625 6 8.25C6 8.0375 6.072 7.85925 6.216 7.71525C6.3595 7.57175 6.5375 7.5 6.75 7.5C6.9625 7.5 7.14075 7.57175 7.28475 7.71525C7.42825 7.85925 7.5 8.0375 7.5 8.25C7.5 8.4625 7.42825 8.6405 7.28475 8.784C7.14075 8.928 6.9625 9 6.75 9ZM9.75 9C9.5375 9 9.3595 8.928 9.216 8.784C9.072 8.6405 9 8.4625 9 8.25C9 8.0375 9.072 7.85925 9.216 7.71525C9.3595 7.57175 9.5375 7.5 9.75 7.5C9.9625 7.5 10.1405 7.57175 10.284 7.71525C10.428 7.85925 10.5 8.0375 10.5 8.25C10.5 8.4625 10.428 8.6405 10.284 8.784C10.1405 8.928 9.9625 9 9.75 9ZM1.5 15C1.0875 15 0.73425 14.8533 0.44025 14.5597C0.14675 14.2657 0 13.9125 0 13.5V3C0 2.5875 0.14675 2.2345 0.44025 1.941C0.73425 1.647 1.0875 1.5 1.5 1.5H2.25V0.73125C2.25 0.51875 2.32175 0.34375 2.46525 0.20625C2.60925 0.0687501 2.7875 0 3 0C3.2125 0 3.39075 0.07175 3.53475 0.21525C3.67825 0.35925 3.75 0.5375 3.75 0.75V1.5H9.75V0.73125C9.75 0.51875 9.822 0.34375 9.966 0.20625C10.1095 0.0687501 10.2875 0 10.5 0C10.7125 0 10.8905 0.07175 11.034 0.21525C11.178 0.35925 11.25 0.5375 11.25 0.75V1.5H12C12.4125 1.5 12.7658 1.647 13.0598 1.941C13.3533 2.2345 13.5 2.5875 13.5 3V13.5C13.5 13.9125 13.3533 14.2657 13.0598 14.5597C12.7658 14.8533 12.4125 15 12 15H1.5ZM1.5 13.5H12V6H1.5V13.5Z" fill="#232323"/>
</svg>
