<svg width="15" height="15" viewBox="0 0 15 15" fill="none" xmlns="http://www.w3.org/2000/svg">
<path d="M13.8 2.7H11.4V1.2C11.4 0.538125 10.8619 0 10.2 0H4.2C3.53812 0 3 0.538125 3 1.2V2.7H0.6C0.268125 2.7 0 2.96813 0 3.3V3.9C0 3.9825 0.0675 4.05 0.15 4.05H1.2825L1.74563 13.8563C1.77562 14.4956 2.30437 15 2.94375 15H11.4562C12.0975 15 12.6244 14.4975 12.6544 13.8563L13.1175 4.05H14.25C14.3325 4.05 14.4 3.9825 14.4 3.9V3.3C14.4 2.96813 14.1319 2.7 13.8 2.7ZM10.05 2.7H4.35V1.35H10.05V2.7Z" fill="#232323"/>
</svg>
