<svg width="26" height="15" viewBox="0 0 26 15" fill="none" xmlns="http://www.w3.org/2000/svg">
<path d="M16.2703 7.49843C16.2703 9.48736 14.5873 11.0997 12.5113 11.0997C10.4353 11.0997 8.75236 9.48736 8.75236 7.49843C8.75236 5.50947 10.4353 3.89713 12.5113 3.89713C14.5873 3.89711 16.2703 5.50949 16.2703 7.49843ZM12.5181 0C10.3686 0.00953462 8.14065 0.532812 6.03155 1.53466C4.46558 2.30915 2.93946 3.40186 1.61471 4.75058C0.96406 5.43905 0.134173 6.43595 0 7.49959C0.0158563 8.42095 1.00416 9.55817 1.61471 10.2486C2.85698 11.5444 4.34336 12.6066 6.03155 13.4653C7.99838 14.4199 10.1754 14.9694 12.5181 15C14.6696 14.9903 16.8971 14.461 19.0039 13.4653C20.5698 12.6908 22.0967 11.5974 23.4215 10.2486C24.0721 9.56016 24.902 8.56324 25.0362 7.49959C25.0203 6.57824 24.032 5.44097 23.4215 4.75054C22.1792 3.45479 20.692 2.3934 19.0039 1.53461C17.0381 0.580819 14.8557 0.0350298 12.5181 0ZM12.5165 1.86203C15.7737 1.86203 18.4141 4.38638 18.4141 7.50041C18.4141 10.6144 15.7737 13.1388 12.5165 13.1388C9.25933 13.1388 6.61892 10.6144 6.61892 7.50041C6.61892 4.38638 9.25933 1.86203 12.5165 1.86203Z" fill="#232323"/>
</svg>
