<svg width="15" height="15" viewBox="0 0 15 15" fill="none" xmlns="http://www.w3.org/2000/svg">
<path d="M1.18665 13.8133C1.56317 14.1904 2.01049 14.4893 2.5029 14.693C2.99531 14.8966 3.52311 15.001 4.05598 15C4.58896 15.0009 5.11687 14.8966 5.60941 14.6929C6.10195 14.4893 6.54941 14.1904 6.92611 13.8133L9.22157 11.517L8.07384 10.3693L5.77838 12.6656C5.32097 13.1209 4.70182 13.3766 4.05638 13.3766C3.41095 13.3766 2.79179 13.1209 2.33438 12.6656C1.87862 12.2084 1.6227 11.5891 1.6227 10.9436C1.6227 10.298 1.87862 9.67877 2.33438 9.22157L4.63065 6.92611L3.48292 5.77838L1.18665 8.07384C0.426753 8.83558 0 9.86761 0 10.9436C0 12.0195 0.426753 13.0516 1.18665 13.8133V13.8133ZM13.8133 6.92611C14.5728 6.16417 14.9993 5.13221 14.9993 4.05638C14.9993 2.98055 14.5728 1.9486 13.8133 1.18665C13.0516 0.426753 12.0195 0 10.9436 0C9.86761 0 8.83558 0.426753 8.07384 1.18665L5.77838 3.48292L6.92611 4.63065L9.22157 2.33438C9.67898 1.87902 10.2981 1.62337 10.9436 1.62337C11.589 1.62337 12.2082 1.87902 12.6656 2.33438C13.1213 2.79158 13.3773 3.41082 13.3773 4.05638C13.3773 4.70195 13.1213 5.32118 12.6656 5.77838L10.3693 8.07384L11.517 9.22157L13.8133 6.92611Z" fill="#232323"/>
<path d="M4.62983 11.5178L3.48129 10.3701L10.3701 3.48211L11.5178 4.63065L4.62983 11.5178Z" fill="#232323"/>
</svg>
